<?xml version="1.0" standalone="no"?>
<!DOCTYPE svg PUBLIC "-//W3C//DTD SVG 20010904//EN"
 "http://www.w3.org/TR/2001/REC-SVG-20010904/DTD/svg10.dtd">
<svg version="1.0" xmlns="http://www.w3.org/2000/svg"
 width="400.000000pt" height="400.000000pt" viewBox="0 0 400.000000 400.000000"
 preserveAspectRatio="xMidYMid meet">
<metadata>
Created by potrace 1.14, written by Peter Selinger 2001-2017
</metadata>
<g transform="translate(0.000000,400.000000) scale(0.100000,-0.100000)"
fill="#000000" stroke="none">
<path d="M0 2000 l0 -2000 2000 0 2000 0 0 2000 0 2000 -2000 0 -2000 0 0
-2000z m2736 1001 c75 -27 191 -97 215 -131 10 -14 21 -37 25 -52 6 -26 4 -28
-27 -28 -22 0 -66 18 -121 49 -48 27 -106 56 -131 66 -40 15 -47 15 -82 1 -20
-9 -61 -16 -89 -16 -28 0 -58 -5 -66 -10 -11 -7 -2 -10 33 -10 26 0 47 -3 47
-7 0 -5 -28 -30 -61 -58 -34 -27 -67 -54 -73 -60 -6 -6 -38 -32 -72 -58 -50
-39 -68 -47 -102 -47 -45 0 -66 -16 -30 -23 13 -2 0 -5 -29 -6 -58 -1 -115 15
-95 28 19 12 4 40 -19 34 -10 -3 -19 0 -19 6 0 6 7 11 15 11 8 0 15 5 15 10 0
6 -9 10 -19 10 -11 0 -23 5 -26 10 -3 6 3 10 15 10 14 0 24 9 31 28 5 16 29
40 57 57 l47 30 -42 3 c-24 2 -43 6 -43 9 0 18 42 32 93 33 52 0 67 5 149 55
51 31 104 59 118 63 21 6 17 8 -25 13 -27 4 18 6 100 4 124 -2 160 -6 211 -24z
m-1176 -11 c25 -16 49 -30 53 -30 9 0 31 -17 55 -42 9 -10 22 -18 28 -18 6 0
22 -8 35 -19 13 -10 51 -33 84 -51 75 -41 95 -58 95 -82 0 -13 -8 -18 -31 -18
-17 0 -28 -4 -24 -10 3 -5 17 -10 31 -10 14 0 22 -4 19 -10 -3 -5 -19 -10 -36
-10 -16 0 -29 -4 -29 -10 0 -5 12 -10 26 -10 37 0 25 -24 -14 -28 -35 -4 -43
-18 -14 -25 9 -3 -7 -5 -36 -6 -55 -1 -81 8 -116 40 -11 11 -24 19 -30 19 -5
0 -31 18 -57 40 -26 22 -52 40 -57 40 -5 0 -17 11 -26 25 -9 14 -21 25 -27 25
-6 0 -27 16 -47 36 -54 52 -119 82 -164 76 -21 -2 -38 -10 -38 -16 0 -22 -111
-65 -185 -71 -38 -3 -86 -8 -105 -11 -26 -4 -31 -3 -20 5 8 6 24 11 35 11 11
0 26 9 33 20 7 11 31 33 54 50 l41 30 -30 0 c-17 0 -36 7 -43 15 -17 21 24 35
108 36 94 1 128 17 39 18 -43 1 -66 5 -62 11 4 6 84 10 208 10 l202 0 45 -30z
m553 -167 c-13 -2 -33 -2 -45 0 -13 2 -3 4 22 4 25 0 35 -2 23 -4z m-1068 -33
c-3 -5 -19 -10 -35 -10 -16 0 -32 5 -35 10 -4 6 10 10 35 10 25 0 39 -4 35
-10z m1772 -146 c-3 -3 -12 -4 -19 -1 -8 3 -5 6 6 6 11 1 17 -2 13 -5z m93
-51 c17 -16 37 -46 45 -68 13 -38 12 -40 -8 -47 -22 -6 -22 -6 1 -7 31 -1 26
-40 -6 -52 -21 -8 -25 -5 -35 21 -6 17 -14 30 -18 30 -4 0 -5 8 -2 19 2 10 -7
41 -21 69 -14 28 -26 54 -26 57 0 15 44 1 70 -22z m-1880 3 c0 -23 -17 -36
-46 -36 -37 0 -37 0 -28 24 4 10 18 16 40 16 19 0 34 -2 34 -4z m73 -3 c-7 -2
-19 -2 -25 0 -7 3 -2 5 12 5 14 0 19 -2 13 -5z m-23 -32 c0 -28 -24 -71 -40
-71 -11 0 -22 -4 -25 -10 -3 -5 3 -10 15 -10 31 0 24 -44 -7 -48 -13 -2 -23
-7 -23 -12 0 -22 14 -40 31 -40 10 0 19 -7 19 -15 0 -17 -26 -20 -35 -4 -4 5
-17 14 -30 19 -13 5 -29 19 -35 30 -10 18 -8 22 9 27 15 4 21 13 21 32 0 40
32 95 60 102 36 10 40 10 40 0z m510 -28 c43 -17 140 -117 140 -144 0 -11 -14
-32 -30 -46 -17 -13 -28 -28 -25 -32 2 -5 -7 -19 -21 -32 l-25 -23 43 -38 c24
-20 38 -37 32 -38 -6 0 -59 25 -118 55 -98 51 -111 55 -174 55 -37 0 -98 -9
-137 -20 -38 -11 -90 -20 -115 -20 l-45 1 35 29 c31 27 32 30 12 30 -35 0 -26
18 12 26 38 7 58 34 26 34 -15 0 -20 7 -20 25 0 19 7 26 28 31 42 11 59 44 21
44 -11 0 -17 5 -14 10 3 6 17 10 31 10 14 0 44 10 67 22 88 46 195 54 277 21z
m1039 -4 c73 -36 122 -96 96 -115 -13 -10 -13 -12 6 -17 16 -4 19 -11 14 -26
-9 -28 8 -55 51 -80 60 -36 28 -46 -42 -14 -49 23 -73 28 -139 27 -99 0 -185
-13 -182 -28 1 -6 -10 -12 -26 -14 -15 -2 -32 -12 -37 -23 -6 -10 -19 -19 -29
-19 -11 0 -21 -6 -24 -14 -3 -7 -15 -16 -27 -19 -27 -7 -40 21 -16 35 9 5 14
14 10 19 -3 6 3 13 15 16 12 3 21 9 21 14 0 9 -39 46 -74 72 -14 10 -15 17 -6
41 6 16 8 31 6 34 -3 2 5 13 17 23 19 16 20 18 5 19 -40 0 -7 40 33 40 15 0
31 5 34 10 3 6 -3 10 -15 10 -40 0 -9 20 33 21 23 1 53 5 67 9 14 4 52 8 86 9
49 1 73 -5 123 -30z m-703 -116 c4 -15 2 -34 -6 -47 -9 -14 -10 -21 -1 -24 13
-4 15 -38 2 -46 -4 -3 -6 -17 -3 -31 7 -41 -16 -81 -87 -147 -91 -84 -102
-103 -99 -162 1 -32 -2 -51 -10 -54 -24 -8 -39 18 -41 73 l-2 55 86 86 c93 93
108 114 104 147 -2 12 1 33 5 46 5 15 4 26 -3 31 -9 5 -8 14 3 36 8 16 17 37
20 47 8 25 25 21 32 -10z m184 -4 c7 -11 9 -31 6 -44 -3 -13 -2 -26 4 -30 5
-3 9 -20 8 -38 -2 -57 12 -81 93 -157 90 -84 108 -124 87 -192 -15 -52 -35
-38 -40 30 -5 56 -6 57 -85 132 -92 86 -112 119 -106 180 3 29 0 46 -9 51 -10
7 -10 11 0 21 16 16 16 55 0 61 -7 3 -3 6 9 6 13 1 27 -8 33 -20z m788 -5 c-9
-9 -21 -13 -28 -9 -14 9 5 25 30 25 12 0 12 -3 -2 -16z m50 -22 c2 -7 -6 -12
-17 -12 -21 0 -27 11 -14 24 9 9 26 2 31 -12z m-1851 -138 c-3 -3 -12 -4 -19
-1 -8 3 -5 6 6 6 11 1 17 -2 13 -5z m30 -20 c-3 -3 -12 -4 -19 -1 -8 3 -5 6 6
6 11 1 17 -2 13 -5z m-65 -116 c-18 -18 -15 -28 11 -29 20 -1 20 -2 2 -6 -28
-7 -43 -23 -22 -23 26 0 20 -17 -8 -24 -29 -7 -33 -22 -7 -29 13 -4 11 -5 -5
-6 -27 -1 -31 -21 -5 -22 14 0 14 -2 -3 -9 -17 -7 -17 -9 -2 -9 24 -1 22 -41
-3 -48 -25 -7 -26 -23 -1 -23 12 0 20 -9 24 -29 15 -71 123 -142 219 -143 52
0 146 29 103 32 -16 1 -14 4 10 15 17 8 42 14 57 15 25 0 147 47 158 60 10 12
88 30 130 30 56 0 105 -24 142 -71 40 -49 148 -93 148 -59 0 6 6 10 13 10 6 0
38 21 71 48 131 105 146 106 373 14 84 -34 159 -62 167 -62 9 0 16 -4 16 -9 0
-13 65 -21 97 -11 l28 8 -30 2 -30 1 40 18 c22 10 55 21 74 24 54 11 80 41 44
50 -12 3 -9 5 8 6 19 1 29 8 33 24 10 36 7 47 -11 47 -16 1 -16 2 1 15 17 13
18 15 3 15 -12 0 -17 8 -17 29 0 16 5 31 11 33 15 5 0 38 -18 38 -10 0 -12 6
-8 19 4 13 0 23 -12 31 -13 8 -14 13 -5 16 6 3 10 10 6 15 -17 29 58 -14 107
-61 9 -8 28 -23 43 -34 14 -10 23 -23 20 -28 -9 -14 24 -58 44 -59 10 0 12 -3
5 -6 -18 -7 -16 -23 2 -23 9 0 22 -15 30 -32 12 -29 12 -34 -3 -40 -16 -6 -16
-7 -1 -7 16 -1 29 -20 29 -42 0 -5 -10 -10 -22 -10 l-23 -2 22 -4 c23 -4 39
-35 28 -53 -3 -5 -17 -10 -31 -10 -33 0 -30 -20 4 -21 20 -1 22 -3 7 -6 -47
-10 -50 -15 -15 -28 l35 -13 -32 -1 c-42 -1 -54 -21 -13 -21 40 0 35 -24 -6
-28 -42 -5 -55 -22 -16 -22 35 0 37 -2 22 -29 -6 -12 -27 -21 -57 -26 l-48 -8
40 -12 c43 -13 32 -21 -30 -24 -49 -2 -55 -21 -6 -21 25 0 40 -4 36 -10 -3 -5
-28 -10 -55 -10 -81 0 -114 -26 -42 -32 l37 -4 -29 -12 c-34 -15 -270 -42
-366 -42 -35 0 -124 7 -198 17 -132 16 -133 16 -185 -5 -55 -23 -194 -32 -182
-12 4 6 -33 10 -105 10 -61 0 -130 5 -153 10 -25 6 -60 7 -87 2 l-45 -8 35
-12 c19 -6 54 -16 78 -22 23 -6 40 -15 37 -19 -5 -9 79 -28 170 -37 76 -8 196
9 299 42 75 23 85 24 175 14 52 -6 97 -13 99 -15 14 -13 -25 -35 -63 -35 -29
0 -47 -6 -59 -19 -18 -19 -17 -20 25 -23 l43 -3 -27 -28 c-23 -22 -37 -27 -76
-27 -30 0 -65 -9 -97 -24 l-49 -25 60 -1 60 -2 -60 -29 -60 -29 -235 2 c-251
3 -230 0 -344 59 -22 11 -74 56 -117 100 -43 43 -83 79 -88 79 -5 0 -14 6 -20
14 -14 17 3 25 57 28 20 1 -39 5 -133 8 -93 4 -181 11 -194 15 -17 6 -22 5
-17 -3 8 -14 -6 -16 -19 -3 -6 5 -37 11 -71 13 -33 2 -67 9 -75 16 -8 6 -33
27 -55 46 -23 20 -48 36 -55 36 -11 0 -11 2 1 10 12 8 9 10 -12 10 -16 0 -28
5 -28 10 0 6 7 10 15 10 30 0 5 45 -30 53 -18 4 -18 5 2 6 22 1 23 6 6 49 -6
16 -8 25 -11 85 -2 21 -7 27 -25 27 -19 0 -23 5 -22 33 0 29 3 32 33 35 17 2
32 7 32 12 0 5 3 15 6 24 5 12 -1 16 -22 17 -27 2 -27 2 5 8 42 7 54 31 17 31
-40 0 -31 17 13 24 44 7 70 29 49 42 -9 6 -6 10 12 15 l25 7 -27 1 c-42 2 -33
21 10 22 23 1 29 3 14 6 -33 6 -17 23 22 23 19 0 39 7 46 15 10 13 9 15 -9 15
-38 0 -12 20 27 21 36 1 36 2 7 8 l-30 6 25 18 c29 20 82 25 62 5z m1281 -985
c-13 -2 -33 -2 -45 0 -13 2 -3 4 22 4 25 0 35 -2 23 -4z m-305 -100 c-27 -2
-69 -2 -95 0 -27 2 -5 3 47 3 52 0 74 -1 48 -3z"/>
<path d="M1224 2941 c3 -5 15 -7 26 -4 28 7 25 13 -6 13 -14 0 -23 -4 -20 -9z"/>
<path d="M3035 1540 c-3 -5 3 -10 15 -10 12 0 18 5 15 10 -3 6 -10 10 -15 10
-5 0 -12 -4 -15 -10z"/>
</g>
</svg>
